<?xml version="1.0" encoding="UTF-8" standalone="no"?>
<!-- Created with Inkscape (http://www.inkscape.org/) -->

<svg
   width="24"
   height="24"
   viewBox="0 0 24 24"
   version="1.1"
   id="svg5"
   inkscape:version="1.2.2 (b0a84865, 2022-12-01)"
   sodipodi:docname="ic_repo.svg"
   xmlns:inkscape="http://www.inkscape.org/namespaces/inkscape"
   xmlns:sodipodi="http://sodipodi.sourceforge.net/DTD/sodipodi-0.dtd"
   xmlns="http://www.w3.org/2000/svg"
   xmlns:svg="http://www.w3.org/2000/svg">
  <sodipodi:namedview
     id="namedview7"
     pagecolor="#ffffff"
     bordercolor="#666666"
     borderopacity="1.0"
     inkscape:showpageshadow="false"
     inkscape:pageopacity="0.0"
     inkscape:pagecheckerboard="0"
     inkscape:deskcolor="#d1d1d1"
     inkscape:document-units="px"
     showgrid="true"
     inkscape:zoom="26.910887"
     inkscape:cx="6.5401039"
     inkscape:cy="14.417956"
     inkscape:window-width="1772"
     inkscape:window-height="1088"
     inkscape:window-x="372"
     inkscape:window-y="58"
     inkscape:window-maximized="0"
     inkscape:current-layer="layer1">
    <inkscape:grid
       type="xygrid"
       id="grid132"
       originx="0"
       originy="0" />
  </sodipodi:namedview>
  <defs
     id="defs2" />
  <g
     inkscape:label="Layer 1"
     inkscape:groupmode="layer"
     id="layer1"
     transform="translate(0,-604.83332)">
    <path
       style="fill:#000000;fill-opacity:1;stroke:none;stroke-width:1;stroke-linecap:butt;stroke-linejoin:miter;stroke-dasharray:none;stroke-opacity:1"
       d="m 2.0000022,608.83332 c -3.4e-6,-2.10394 1.8960534,-4 3.9999978,-4 h 13 c 0.631184,0 1.000002,0.36882 1,1 v 19 c 2e-6,0.63118 -0.368816,1 -1,1 h -3.666666 c -1.313605,0 -1.313605,-2 0,-2 h 2.666667 v -3 H 6 c -1.5077889,0.079 -2.03964,1.52119 -1.278474,2.59048 1.0666662,1.08902 -0.5668576,2.68902 -1.6335238,1.6 -0.6983446,-0.71181 -1.0890786,-1.66949 -1.088,-2.66667 z m 15.9999988,-2 H 6 c -0.841577,0 -2,1.15842 -2,2 v 10.55676 c 0.427972,-0.49902 1.4756009,-0.55772 2,-0.55676 H 18.000001 Z M 6.9523815,623.26351 c 1.4e-6,-0.2104 0.1705589,-0.43019 0.380952,-0.43019 H 12.64039 c 0.210393,0 0.359609,0.21979 0.35961,0.43019 v 4.821 c -10e-7,0.31392 -0.310769,0.49311 -0.561906,0.30476 l -2.209523,-1.65638 c -0.13528,-0.1021 -0.3218644,-0.1021 -0.4571435,0 l -2.209523,1.65638 c -0.2511368,0.18835 -0.6095209,0.009 -0.609523,-0.30476 z"
       id="path381"
       sodipodi:nodetypes="ccsccsssccccccccssccccccccccccccc" />
  </g>
</svg>
